# xmcd
#
# Track frame offsets:
#	150
#	14688
#	29649
#	47204
#	63354
#	81132
#	98896
#	117003
#	133655
#	147272
#	166088
#
# Disc length: 2415 seconds
#
# Revision: 0
# Processed by: cddbd v1.5.1PL0 Copyright (c) Steve Scherf et al.
# Submitted via: dBpowerAMP V4.0
#
DISCID=94096d0b
DTITLE=Chimene Badi - Entre nous
DYEAR=2003
DGENRE=
TTITLE0=Entre nous
TTITLE1=La vie qui gagne
TTITLE2=Pour l'amour qu'il nous reste
TTITLE3=Si j'avais su t'aimer
TTITLE4=En attendant
TTITLE5=L'amour explore
TTITLE6=Comme une ombre
TTITLE7=Un pere
TTITLE8=Je vais te chercher
TTITLE9=Repondez moi
TTITLE10=Entre nous ( instrumental )
EXTD=
EXTT0=
EXTT1=
EXTT2=
EXTT3=
EXTT4=
EXTT5=
EXTT6=
EXTT7=
EXTT8=
EXTT9=
EXTT10=
PLAYORDER=
